<mxfile host="app.diagrams.net" modified="2023-08-06T09:45:41.007Z" agent="Mozilla/5.0 (Windows NT 10.0; Win64; x64) AppleWebKit/537.36 (KHTML, like Gecko) Chrome/115.0.0.0 Safari/537.36" etag="7z7nIjqOLY_r40i6LrDe" version="21.6.6" type="github">
  <diagram name="Page-1" id="bA1wImlZDKmiYzKjVAUx">
    <mxGraphModel dx="669" dy="205" grid="0" gridSize="10" guides="1" tooltips="1" connect="1" arrows="1" fold="1" page="0" pageScale="1" pageWidth="850" pageHeight="1100" math="0" shadow="0">
      <root>
        <mxCell id="0" />
        <mxCell id="1" parent="0" />
      </root>
    </mxGraphModel>
  </diagram>
</mxfile>
